PathFileType	4	(X/Y/Z)	OpenSim_Sub06_CSBaseline_Accel.trc
DataRate	CameraRate	NumFrames	NumMarkers	Units	OrigDataRate	OrigDataStartFrame	OrigNumFrames
100	100	41	8	m	100	4247	8492
Frame#	Time	torso_imu_offset_imu	pelvis_imu_offset_imu	tibia_r_imu_offset_imu	femur_r_imu_offset_imu	tibia_l_imu_offset_imu	femur_l_imu_offset_imu	toes_r_imu_offset_imu	toes_l_imu_offset_imu
				X1	Y1	Z1	X2	Y2	Z2	X3	Y3	Z3	X4	Y4	Z4	X5	Y5	Z5	X6	Y6	Z6	X7	Y7	Z7	X8		Y8	Z8	

4247	42.46000000	8.06018249	0.78028462	5.65277595	7.49415186	-2.22131059	4.38102945	8.14563070	7.64787491	1.16174686	7.24036799	-2.87495995	2.92630238	9.57594975	-1.87911615	0.81333020	8.62088073	1.83787402	-2.35408688	4.50650317	0.33761268	11.10886218	4.86654584	0.84331406	11.14571376
4248	42.47000000	8.18998095	0.76313569	5.60357765	7.46678097	-2.33791505	4.27939443	7.51598162	9.24369090	1.67916228	7.14943872	-2.50410473	2.66337490	9.59806413	-1.58789939	0.91857905	8.84740746	1.88644270	-2.21769600	4.76576173	0.20658717	10.93078058	5.30174236	0.62534221	10.92615332
4249	42.48000000	8.29046966	0.75121949	5.58686922	7.36700375	-2.59138894	4.16097915	6.66093419	9.87103950	2.62806177	6.67348673	-2.44769953	2.65134898	9.68914554	-1.28965067	0.95098606	8.93085778	1.82152772	-2.02450674	6.56818601	-0.16960742	10.79039325	5.40344512	0.52619291	10.93053067
4250	42.49000000	8.47732000	0.69541688	5.61070268	7.46501919	-2.64083857	3.96856018	5.57181368	9.36741686	4.21524391	6.50268328	-2.10407268	2.76027495	9.86180266	-1.25170230	0.96361732	8.63831305	1.67375118	-2.40863914	7.82856723	-1.13309353	9.85254022	5.60356226	0.35782159	10.90082761
4251	42.50000000	8.55485700	0.72706333	5.58706458	7.51479629	-2.69078816	3.67134395	4.87392476	7.84783693	5.37448456	6.77188811	-1.82120106	2.87319356	9.89857443	-1.27924548	1.09743350	8.99506446	1.36539437	-2.42631688	8.75080747	-2.17633005	8.97542130	5.01256954	0.65049264	11.20204039
4252	42.51000000	8.60316095	0.72593610	5.52735838	7.64512338	-2.82918447	3.43491260	4.96548177	5.81758513	5.94620351	7.32747732	-1.59977294	3.05021489	9.75661018	-1.47797645	1.18630791	9.17934820	0.77459138	-2.52359708	12.00162384	-3.00109738	8.98197605	5.03454366	0.81083090	11.23689019
4253	42.52000000	8.55712000	0.73763385	5.45511808	7.73420293	-2.74533802	3.23964341	5.56579441	3.68628174	6.27721398	7.78336426	-1.48533032	3.24767279	9.60422036	-1.57555990	1.22018706	9.17434241	0.30578913	-2.55437284	14.94368026	-4.25670936	8.48084229	5.40390386	0.42989451	10.96904424
4254	42.53000000	8.64236113	0.76677018	5.30198540	7.71571649	-2.89877687	3.12255957	6.69811534	2.05006442	5.46763384	7.88095191	-1.26180705	3.41727288	9.70422972	-1.61176802	1.16267832	9.49033068	-0.14416050	-2.43748336	15.37829495	-5.53012832	7.10418039	5.34315778	0.50516998	10.94276628
4255	42.54000000	8.80310464	0.80744074	5.22254338	7.74142779	-2.91108299	3.11568264	8.18386763	0.58065914	4.10781278	7.59057398	-1.34653551	3.56008784	9.88672963	-1.39107997	1.16802821	9.24690801	-0.04209839	-2.53805653	15.43374586	-5.27479111	5.88502862	5.34327312	0.40789372	11.02723952
4256	42.55000000	8.91574073	0.91981301	5.22591042	7.67416833	-2.91715063	3.14206701	10.14075422	-1.41223787	3.01074631	7.41045214	-1.62212300	3.72046173	10.12295406	-0.96982444	1.26372437	9.34399903	0.08480246	-2.68769754	16.12708322	-3.87797347	5.18809618	4.94257536	0.53520624	11.28154766
4257	42.56000000	9.07256872	0.94719343	5.25289508	7.71277550	-2.81027104	3.41547795	12.05836342	-2.80064602	1.43842015	7.29307769	-2.24154779	3.50114782	10.28542271	-0.45956446	1.29528032	9.55645187	0.45754925	-2.89306551	15.62187441	1.88315181	6.32421219	5.19962917	0.40454002	11.21479363
4258	42.57000000	9.17486566	0.93404816	5.38908135	7.94773929	-2.93956312	3.69725641	13.29110177	-1.11869346	-0.50318697	7.26050453	-3.40598977	3.42982055	10.54762647	0.24764404	1.13231841	9.59166169	0.78961494	-2.95500521	17.21011097	5.87084303	7.25454361	5.20451142	0.27665024	11.11340957
4259	42.58000000	9.22081349	0.93590777	5.46089571	8.04951821	-2.77399717	3.71213736	13.00252970	0.44715176	0.44478539	7.45645394	-4.71608128	3.77630713	10.69741908	0.78282015	1.08230756	9.10100867	1.26113427	-3.73195348	18.43986545	3.22137160	3.74573171	5.37896034	0.40983127	11.09111382
4260	42.59000000	9.33515044	0.95295847	5.54790449	8.24085311	-2.37321049	3.79553492	11.55080625	2.39508443	3.95343198	7.70184240	-6.48929898	3.48326236	10.49282878	1.21128812	0.91821143	8.85686038	1.51760421	-3.54877604	19.33604584	3.22687038	0.84968131	5.11972362	0.84193293	11.25846007
4261	42.60000000	9.39439582	0.97850738	5.72293139	8.50127062	-1.85492966	3.96082543	7.75266508	3.51678439	3.43501926	7.91984088	-8.46828529	2.58071032	10.29779629	1.34068584	0.92679333	8.43760224	1.29194392	-3.21010349	20.42954036	7.00507320	-0.66240474	4.92041551	1.20133527	11.33475639
4262	42.61000000	9.38014221	1.06131879	5.85982851	8.71418334	-1.31990615	4.14944003	4.85950407	2.43166323	1.67184316	8.77585879	-8.96077898	2.10470278	10.23268574	1.14031321	0.83147591	8.22340708	0.99759037	-3.53237890	18.53056300	9.05346955	-2.45366489	5.32671111	0.97913140	11.15733994
4263	42.62000000	9.28522329	1.11918489	5.87680184	8.60102383	-0.97643875	4.32137989	6.02192095	-0.05991751	2.00587602	9.49030807	-8.36767183	2.45185053	10.41726094	1.17514069	0.71963877	8.28930851	1.01026420	-3.35357122	15.25315886	9.09368395	-10.71405723	5.37724198	0.83475217	11.20745545
4264	42.63000000	9.41389398	1.19750339	5.96296563	8.41804240	-0.83289599	4.29750240	9.34958158	-1.84651041	1.96459616	9.35691429	-7.48150828	2.85893310	10.62215342	1.31993729	0.76235984	8.55129516	0.92377663	-3.28962964	19.14021990	12.02889219	-11.67975600	5.28303236	0.83946991	11.36871145
4265	42.64000000	9.72048491	1.17386372	6.18104651	8.53022849	-0.92963098	3.98645442	10.69159803	-2.50631410	2.63019495	8.86690756	-6.69548563	3.27081563	10.71844357	1.59540028	1.11420514	8.44673774	1.55213411	-3.55753297	23.81716595	16.88300985	-13.42962976	5.07287738	1.07720307	11.66642723
4266	42.65000000	9.80586571	1.19196615	6.34725604	8.55891625	-1.03549461	4.09547661	11.60431276	-1.48263250	2.50036374	8.83283836	-5.78808890	3.83862255	10.68227555	1.93319518	1.57570479	8.59095258	1.56505727	-3.73850866	6.04114262	22.67148537	6.68417671	5.10981386	0.90271036	11.82234498
4267	42.66000000	10.07853240	1.22227130	6.55262160	9.00353754	-0.87956978	5.25622121	13.52150137	0.30687003	5.37533112	10.30266388	-4.84607452	4.60718253	10.98713035	2.08049855	1.89092488	8.80506234	2.07317113	-3.82410768	20.16210192	-7.20781840	28.37436986	5.34030829	0.89994862	12.09747092
4268	42.67000000	11.35667488	1.12250462	6.97889225	9.93330277	0.52898986	7.09704554	16.68768913	0.04183414	8.71853477	15.38307348	-4.37261306	3.99317431	11.97171927	2.34780590	1.96443237	9.12855121	2.57162661	-3.69833656	29.48128757	-2.51473587	22.03948488	5.30264246	1.07662848	12.36959141
4269	42.68000000	12.98293490	0.55566440	7.66141052	12.36706856	1.77093713	8.05959825	19.62917556	-1.47108071	11.12190567	23.60060172	-4.91191674	0.64467837	13.17864414	2.70686770	2.25982478	9.63768009	2.59478851	-3.46471743	2.27959605	9.78496147	10.53834034	5.15307102	1.62484683	13.01624420
4270	42.69000000	13.57167703	0.06299366	8.58333201	15.74019379	3.26400165	8.41684358	18.42103862	-5.04059818	7.56970426	24.98756569	-3.84941695	-2.93801787	13.84182731	3.01939778	3.14393692	10.45272077	2.35239714	-2.74579538	13.14970143	-8.49945421	9.92994939	4.85542153	2.35837948	13.31508241
4271	42.70000000	13.23030674	-0.08179057	8.77444527	15.19664249	4.36526628	9.41540975	16.67285319	-6.45119807	10.36572009	17.45065874	-1.90466695	-3.08329819	13.41993697	2.50226244	4.91802396	10.69938562	2.29887836	-1.94268136	3.99081416	-1.21337893	10.34191098	5.86067526	2.53865124	13.29355327
4272	42.71000000	12.46290089	-0.37995632	8.35182430	11.47980439	2.86353015	8.43615564	11.89411603	-4.47865956	10.32604358	9.93988760	0.08407605	0.18811784	12.56015958	1.15427080	6.59362299	11.19432971	2.40050268	-1.38929145	5.35331441	3.53700739	9.81522950	5.53471130	2.07036180	13.97210009
4273	42.72000000	11.59296578	-0.74302205	7.58947150	10.19756922	-0.41728350	6.06807667	3.68399403	1.30013247	3.91204615	6.04664298	2.21723760	2.75774954	12.85069565	-0.44997427	7.20389059	12.31809118	2.31716192	-1.05153305	5.03498492	-0.11472788	8.67805414	4.90270527	1.52954983	14.80651392
4274	42.73000000	11.06916174	-0.91291265	6.81004911	9.77739461	-2.81438496	4.64920514	1.42218734	4.65394712	-3.66377831	5.06633389	1.70977191	3.86493764	14.41016079	-1.76436414	6.21170502	13.46137463	2.20226201	-1.01495293	4.33192752	-2.09087268	8.59505804	4.34263146	1.18998613	15.50066583
4275	42.74000000	10.79593850	-1.00304869	6.24230165	8.98846257	-4.51549415	3.83991395	3.58795693	5.83578362	-5.29258941	4.59198810	1.24840131	4.19786557	15.08506002	-1.89521716	4.47665228	14.87839705	0.99350884	-0.40400753	4.95631495	-3.11011832	8.37858186	5.28473083	-0.27521471	14.85145514
4276	42.75000000	10.26591531	-1.15610483	5.78239931	8.11204959	-5.61212487	3.99652127	6.57971246	7.49012052	-1.92495478	3.53433114	1.97676379	3.02821398	14.90608358	-0.62719186	1.90771413	13.23577436	0.03463294	-1.32964011	5.67055080	-6.39389974	7.14958709	6.26077620	-0.98986488	13.79427732
4277	42.76000000	9.69384216	-1.32059204	5.26116761	7.97668406	-5.96239355	4.38807747	9.57427592	8.90432628	-4.78755193	3.97690206	2.48586390	1.48132532	14.95350474	0.25432266	0.31090818	12.45795061	0.29839844	0.44391172	4.77361925	-3.43878330	8.11991960	5.77340524	-0.08891697	14.05852359
4278	42.77000000	9.08758984	-1.46071206	4.91014247	8.64289124	-5.31705877	4.85701079	11.22912362	11.12170441	-5.31100161	7.60731372	1.99805563	0.28069048	14.34592092	-0.02730391	-0.04757334	10.59528382	-0.36970963	0.24587750	6.24081906	-5.03532993	7.13796959	6.07514508	-0.10502152	13.61416644
4279	42.78000000	8.44392420	-1.37198037	4.79012373	8.73923553	-3.98527243	5.50800725	10.44359512	13.51377024	-3.67778806	10.49955949	0.17507250	-2.14217487	12.68365364	-1.27362300	0.69436573	9.62604047	-1.33744944	0.46595895	5.07319307	-3.97612296	7.84519627	8.30449717	1.90992846	12.98260497
4280	42.79000000	7.95221586	-1.28055370	4.87934019	8.54645009	-2.06315352	6.01850942	9.40948678	13.70659362	-1.07530788	11.28104185	-1.70553937	-4.61029123	10.48026081	-3.41993824	1.84590355	9.80829410	-2.41251624	-0.01310594	4.81566028	-2.59689744	8.60960484	8.97034711	2.34079167	12.52133528
4281	42.80000000	7.80317727	-1.32164492	5.02582045	8.07129246	-0.02084047	6.30250570	9.11293155	11.40210748	1.70879034	10.82236112	-2.79550284	-6.22076712	8.05579410	-6.25164971	3.24863040	9.29367699	-2.51115579	0.41733619	5.13210406	-1.18315183	9.28809843	10.74564423	0.92156373	10.79729741
4282	42.81000000	7.89256268	-1.53161666	4.99810285	7.73505495	1.69562549	6.64622812	9.10785901	6.52055103	2.58908904	9.68746739	-2.73790468	-5.59600396	5.73959145	-7.50339813	3.42652800	9.48391305	-2.76846695	0.77499545	4.93249761	-0.90625002	9.17128019	11.19728599	4.61488932	12.10657997
4283	42.82000000	8.15041268	-1.56466656	4.97640949	7.32056542	2.75325579	7.15279765	9.40094029	0.22485985	2.70090973	8.82596189	-2.42469453	-3.50566969	4.68358639	-6.35951469	2.47463076	10.74221326	-2.95118745	0.66098666	4.86930382	-1.45510846	9.07338905	11.88073819	6.32901230	12.90812129
4284	42.83000000	8.44868773	-1.63997707	5.05240357	7.25277662	3.20460987	7.65667902	10.79846174	-5.03145727	2.25056316	8.89230611	-2.65844223	-1.54770940	5.13561308	-5.72702982	2.35513222	11.40540583	-2.50130786	0.31655313	4.72260158	-1.77108946	9.05187038	9.06059886	5.33149773	7.46758859
4285	42.84000000	8.65645570	-1.70502989	5.14507887	7.76885627	3.45667520	7.78058898	12.16556135	-8.06024260	2.12104715	9.74482986	-2.96058995	-0.47455199	5.62771465	-6.81261115	2.11119525	10.99460662	-1.55131224	-0.42482742	5.02889110	-1.92660764	8.97211271	8.45789736	7.31656088	15.96009009
4286	42.85000000	8.94353617	-1.75644802	5.59792818	8.81038447	3.09263489	7.13074758	12.14608089	-7.41401564	1.69159759	10.32483489	-3.21940205	0.21523180	6.13722512	-8.93128470	1.28391347	10.65647924	-0.92780783	-0.85437866	4.79386902	-2.29889831	8.91918853	33.09427690	11.27739090	27.77899255
4287	42.86000000	9.05913472	-1.77832735	5.83907756	9.13830095	2.38831803	6.11354394	10.90418747	-3.51005782	1.36660136	10.29223649	-3.31581693	0.67494635	5.67249311	-10.09637554	0.93891804	10.45960796	-0.63331775	-0.01661166	5.10402835	-1.78391674	8.91761082	9.62146775	9.90350409	20.52467422
